<svg width="25" height="35" viewBox="0 0 25 35" fill="none" xmlns="http://www.w3.org/2000/svg">
<path d="M6.54932 23.4507V21.7505H8.24951V23.4507H6.54932Z" fill="#00B7FF"/>
<path fill-rule="evenodd" clip-rule="evenodd" d="M9.09961 0.498047C8.42323 0.498047 7.77455 0.766738 7.29628 1.24501C6.81801 1.72328 6.54932 2.37196 6.54932 3.04834H3.14893C2.47255 3.04834 1.82387 3.31703 1.3456 3.7953C0.867323 4.27358 0.598633 4.92225 0.598633 5.59863V31.9517C0.598633 32.628 0.867323 33.2767 1.3456 33.755C1.82387 34.2333 2.47255 34.502 3.14893 34.502H21.8511C22.5275 34.502 23.1761 34.2333 23.6544 33.755C24.1327 33.2767 24.4014 32.628 24.4014 31.9517V5.59863C24.4014 4.92225 24.1327 4.27358 23.6544 3.7953C23.1761 3.31703 22.5275 3.04834 21.8511 3.04834H18.4507C18.4507 2.37196 18.182 1.72328 17.7037 1.24501C17.2254 0.766738 16.5768 0.498047 15.9004 0.498047H9.09961ZM8.24951 3.04834C8.24951 2.82288 8.33907 2.60665 8.4985 2.44723C8.65792 2.28781 8.87415 2.19824 9.09961 2.19824H15.9004C16.1259 2.19824 16.3421 2.28781 16.5015 2.44723C16.6609 2.60665 16.7505 2.82288 16.7505 3.04834V4.74854C16.7505 4.974 16.6609 5.19022 16.5015 5.34964C16.3421 5.50907 16.1259 5.59863 15.9004 5.59863H9.09961C8.87415 5.59863 8.65792 5.50907 8.4985 5.34964C8.33907 5.19022 8.24951 4.974 8.24951 4.74854V3.04834ZM5.69922 14.0996C5.47376 14.0996 5.25753 14.1892 5.09811 14.3486C4.93868 14.508 4.84912 14.7242 4.84912 14.9497C4.84912 15.1752 4.93868 15.3914 5.09811 15.5508C5.25753 15.7102 5.47376 15.7998 5.69922 15.7998H11.6499C11.8754 15.7998 12.0916 15.7102 12.251 15.5508C12.4104 15.3914 12.5 15.1752 12.5 14.9497C12.5 14.7242 12.4104 14.508 12.251 14.3486C12.0916 14.1892 11.8754 14.0996 11.6499 14.0996H5.69922ZM4.84912 10.6992C4.84912 10.4738 4.93868 10.2575 5.09811 10.0981C5.25753 9.93868 5.47376 9.84912 5.69922 9.84912H18.8757C19.1012 9.84912 19.3174 9.93868 19.4768 10.0981C19.6363 10.2575 19.7258 10.4738 19.7258 10.6992C19.7258 10.9247 19.6363 11.1409 19.4768 11.3003C19.3174 11.4598 19.1012 11.5493 18.8757 11.5493H5.69922C5.47376 11.5493 5.25753 11.4598 5.09811 11.3003C4.93868 11.1409 4.84912 10.9247 4.84912 10.6992ZM4.84912 20.9004C4.84912 20.6749 4.93868 20.4587 5.09811 20.2993C5.25753 20.1399 5.47376 20.0503 5.69922 20.0503H9.09961C9.32507 20.0503 9.5413 20.1399 9.70072 20.2993C9.86014 20.4587 9.94971 20.6749 9.94971 20.9004V24.3008C9.94971 24.5262 9.86014 24.7425 9.70072 24.9019C9.5413 25.0613 9.32507 25.1509 9.09961 25.1509H5.69922C5.47376 25.1509 5.25753 25.0613 5.09811 24.9019C4.93868 24.7425 4.84912 24.5262 4.84912 24.3008V20.9004ZM15.9004 24.3008C16.5768 24.3008 17.2254 24.0321 17.7037 23.5538C18.182 23.0755 18.4507 22.4269 18.4507 21.7505C18.4507 21.0741 18.182 20.4254 17.7037 19.9472C17.2254 19.4689 16.5768 19.2002 15.9004 19.2002C15.224 19.2002 14.5753 19.4689 14.0971 19.9472C13.6188 20.4254 13.3501 21.0741 13.3501 21.7505C13.3501 22.4269 13.6188 23.0755 14.0971 23.5538C14.5753 24.0321 15.224 24.3008 15.9004 24.3008ZM10.7998 28.1262C10.7998 26.3274 14.1976 25.4212 15.9004 25.4212C17.6031 25.4212 21.001 26.3274 21.001 28.1262V30.2515H10.7998V28.1262Z" fill="#00B7FF"/>
</svg>
