<svg width="23" height="31" viewBox="0 0 23 31" fill="none" xmlns="http://www.w3.org/2000/svg">
<path d="M11.5 16.2381C10.3021 16.2381 9.28385 15.8075 8.44531 14.9464C7.60677 14.0853 7.1875 13.0397 7.1875 11.8095C7.1875 10.5794 7.60677 9.53373 8.44531 8.67262C9.28385 7.81151 10.3021 7.38095 11.5 7.38095C12.6979 7.38095 13.7161 7.81151 14.5547 8.67262C15.3932 9.53373 15.8125 10.5794 15.8125 11.8095C15.8125 13.0397 15.3932 14.0853 14.5547 14.9464C13.7161 15.8075 12.6979 16.2381 11.5 16.2381ZM2.875 31V19.5964C1.96458 18.5631 1.25781 17.3821 0.754688 16.0536C0.251563 14.725 0 13.3103 0 11.8095C0 8.5127 1.11406 5.72024 3.34219 3.43214C5.57031 1.14405 8.28958 0 11.5 0C14.7104 0 17.4297 1.14405 19.6578 3.43214C21.8859 5.72024 23 8.5127 23 11.8095C23 13.3103 22.7484 14.725 22.2453 16.0536C21.7422 17.3821 21.0354 18.5631 20.125 19.5964V31L11.5 28.0476L2.875 31ZM11.5 20.6667C13.8958 20.6667 15.9323 19.8056 17.6094 18.0833C19.2865 16.3611 20.125 14.2698 20.125 11.8095C20.125 9.34921 19.2865 7.25794 17.6094 5.53571C15.9323 3.81349 13.8958 2.95238 11.5 2.95238C9.10417 2.95238 7.06771 3.81349 5.39062 5.53571C3.71354 7.25794 2.875 9.34921 2.875 11.8095C2.875 14.2698 3.71354 16.3611 5.39062 18.0833C7.06771 19.8056 9.10417 20.6667 11.5 20.6667Z" fill="#00B7FF"/>
</svg>
