<svg width="273" height="61" viewBox="0 0 273 61" fill="none" xmlns="http://www.w3.org/2000/svg">
<path fill-rule="evenodd" clip-rule="evenodd" d="M23.387 3.64841C20.7248 6.74532 17.9701 9.76888 15.316 12.8739C11.1597 17.7339 6.7615 23.254 4.23235 29.1653C2.33074 33.6097 1.87164 37.9535 3.06422 42.1914C3.06965 42.1859 3.0778 42.1805 3.08323 42.1805C5.81069 40.4337 8.16054 40.3522 10.274 41.3085C9.3993 39.4992 8.91032 37.4781 8.91032 35.3456C8.91032 27.6142 15.3323 21.3443 23.2539 21.3443C31.1755 21.3443 37.5975 27.6114 37.5975 35.3456C37.5975 37.5025 37.0977 39.5427 36.2066 41.3655C38.3582 40.412 40.909 40.4473 43.6501 42.1968L43.6637 42.2077C43.6745 42.1669 43.6854 42.1289 43.6962 42.0881C45.4104 35.5357 43.3675 29.5022 39.7545 24.0038C37.3204 20.2984 34.6908 16.775 31.8709 13.3548C29.138 10.0405 26.2639 6.8404 23.3897 3.64841H23.387Z" fill="#00B7FF"/>
<path fill-rule="evenodd" clip-rule="evenodd" d="M13.2681 55.1087C15.6532 54.8941 16.5769 56.4589 18.1905 56.505C19.7118 56.5512 22.0318 54.9539 23.1266 55.0191C24.4061 55.0951 26.0496 56.6246 28.0327 56.4453C29.0976 56.3502 31.1568 54.6795 32.1945 55.0191L33.0394 55.2962C30.8933 56.3937 28.5679 57.1489 26.1854 57.502C23.5178 57.8987 20.9832 57.79 18.3671 57.1217C17.3022 56.8501 16.2563 56.505 15.243 56.0758C14.5584 55.7852 13.901 55.4646 13.2681 55.1087Z" fill="#00919D"/>
<path fill-rule="evenodd" clip-rule="evenodd" d="M11.638 54.09C12.1976 53.8618 12.7518 53.6173 13.344 53.5331C14.015 53.438 14.7023 53.5766 15.3651 53.7124C16.4925 53.9433 17.5438 54.598 18.6957 54.6333C19.5731 54.6605 20.3609 54.0628 21.2221 53.889C22.6836 53.5929 23.6616 53.5766 24.4195 53.7667C25.5741 54.0601 26.2777 54.7094 27.8207 54.5709C29.0377 54.4622 30.4884 53.6065 31.6864 53.5304C33.1561 53.4353 33.7401 53.7477 34.8458 54.2584C34.259 54.6306 33.6532 54.9783 33.0365 55.2935L32.1917 55.0164C31.1539 54.6768 29.0948 56.3475 28.0299 56.4426C26.0495 56.6219 24.4032 55.0924 23.1237 55.0164C22.0289 54.9512 19.7117 56.5485 18.1877 56.5023C16.574 56.4534 15.6477 54.8914 13.2652 55.106C12.7029 54.7909 12.1596 54.4513 11.6353 54.0873L11.638 54.09Z" fill="#00AFB3"/>
<path fill-rule="evenodd" clip-rule="evenodd" d="M9.96729 52.7888C11.7059 52.7018 13.0425 51.9412 14.5936 52.0716C15.6477 52.1612 16.7914 52.7698 17.9541 52.8458C19.6628 52.9572 21.2656 52.1341 22.8005 52.0444C24.3217 51.9521 25.5877 52.8295 26.9025 52.9056C28.345 52.9925 29.6164 52.3161 31.1241 52.1612C32.5584 52.0145 33.4386 52.3759 34.3188 52.6176C35.1908 52.8594 35.9895 52.8295 36.8615 52.8187C36.2204 53.3375 35.5467 53.8184 34.8512 54.2612C33.7429 53.7504 33.1588 53.438 31.6918 53.5331C30.4938 53.6092 29.0432 54.4649 27.8261 54.5736C26.2804 54.7121 25.5795 54.0629 24.425 53.7695C23.667 53.5766 22.6891 53.5956 21.2275 53.8917C20.3664 54.0656 19.5786 54.6605 18.7011 54.6361C17.5493 54.6007 16.5007 53.946 15.3706 53.7151C14.7077 53.5793 14.0177 53.4408 13.3494 53.5358C12.7572 53.6201 12.2003 53.8618 11.6434 54.0927C11.0648 53.688 10.5079 53.256 9.97272 52.7915L9.96729 52.7888Z" fill="#00C2C6"/>
<path fill-rule="evenodd" clip-rule="evenodd" d="M5.41699 47.4127C6.12331 46.6574 7.83476 46.4048 8.68233 46.4455C9.68204 46.4917 10.823 47.0269 12.3524 47.0731C12.8441 47.0867 13.3902 47.1002 13.9552 47.1084C12.5317 48.7438 10.7442 48.7465 9.71464 48.4477C8.60898 48.1298 8.09012 47.5105 6.05539 48.3798C5.83535 48.0619 5.62074 47.7414 5.41699 47.4127ZM14.6045 47.1138C16.392 47.1328 18.2474 47.1165 19.1711 47.0649C19.9616 47.0187 20.5701 46.7715 21.6758 46.5325C21.942 46.4754 22.2055 46.4401 22.4663 46.4265C20.4587 49.154 16.9571 49.518 14.6072 47.1138H14.6045ZM23.1319 46.4265C23.6752 46.4564 24.2076 46.5488 24.7374 46.652C29.3447 47.5621 29.6517 46.5678 30.1787 46.326C30.5156 46.4944 30.8144 46.6411 31.0996 46.7607C28.5732 49.5316 25.0688 49.4202 23.1346 46.4292L23.1319 46.4265ZM31.4338 46.8884C31.7869 47.0133 32.1319 47.0948 32.5258 47.1274C34.5606 47.2931 36.7691 46.3532 38.4725 46.413C39.0918 46.4347 39.6976 46.6792 40.2572 46.9481C40.5371 47.0839 41.0451 47.3746 41.3575 47.6463C41.2787 47.7767 41.1972 47.9071 41.1157 48.0375C36.4296 46.9997 34.1965 50.6019 31.4365 46.8884H31.4338Z" fill="#00E2F1"/>
<path fill-rule="evenodd" clip-rule="evenodd" d="M10.1059 43.6991L11.1789 43.3622C11.8717 43.7942 12.4068 44.2641 12.8089 44.7667C13.4418 45.5572 13.7162 45.962 14.7431 46.2336C15.8243 46.5189 16.9381 46.2853 17.8536 45.7936C18.4186 46.0408 18.8506 46.326 19.4156 46.5732C19.7851 46.2391 20.217 45.9484 20.7305 45.7148C21.8551 45.1986 22.92 45.0411 24.1289 45.3073C25.1965 45.5409 25.6774 46.0734 26.4679 46.2662C27.1172 46.4238 27.837 46.1386 28.7933 45.6686C30.301 46.2255 31.2763 46.8557 32.7812 45.78C33.2729 45.9674 33.7456 46.1494 34.2346 46.3369C34.4329 46.3314 34.6312 46.326 34.8295 46.3233C36.7502 44.8346 39.0729 44.639 42.0231 46.4428L41.9986 46.5026C41.7949 46.8938 41.5803 47.2768 41.3548 47.6517C41.0424 47.3773 40.5344 47.0867 40.2546 46.9535C39.695 46.6846 39.0919 46.4401 38.4698 46.4184C36.7665 46.3586 34.5579 47.2986 32.5232 47.1328C31.6973 47.0649 31.0779 46.7824 30.1733 46.3314C29.6463 46.5732 29.3393 47.5675 24.732 46.6574C23.7377 46.4618 22.7244 46.3097 21.6704 46.5379C20.5647 46.7797 19.9562 47.0242 19.1657 47.0704C17.8319 47.1464 14.5529 47.141 12.3471 47.0758C10.8176 47.0296 9.67665 46.4944 8.67694 46.4483C7.82665 46.4075 6.1152 46.6629 5.4116 47.4154L5.36271 47.3366C5.12908 46.9644 4.91175 46.5895 4.70801 46.2146C8.55198 43.642 11.3148 46.6574 12.5318 46.2907C12.1406 44.9786 11.2142 44.1446 10.1004 43.6991H10.1059Z" fill="#95F2F5"/>
<path fill-rule="evenodd" clip-rule="evenodd" d="M38.6435 49.7571L39.6676 50.0396C38.9396 50.9252 38.1327 51.7483 37.2499 52.4954C37.1222 52.6041 36.9918 52.7127 36.8587 52.8187C35.9866 52.8295 35.1907 52.8594 34.3159 52.6176C33.4358 52.3759 32.5556 52.0146 31.1212 52.1613C29.6135 52.3161 28.3422 52.9898 26.8997 52.9056C25.5821 52.8268 24.3189 51.9521 22.7976 52.0444C21.2627 52.1368 19.6599 52.9572 17.9512 52.8458C16.7885 52.7698 15.6475 52.1613 14.5908 52.0716C13.0396 51.9412 11.7031 52.6991 9.96444 52.7888C9.14403 52.077 8.37252 51.2974 7.6499 50.4498C8.45673 51.0149 9.51892 51.2702 10.4724 51.1507C11.8063 50.9823 13.1211 50.2189 13.8329 49.1676C14.2892 49.7761 14.819 50.2596 15.3895 50.6209C16.2914 51.1914 17.2965 51.4577 18.2989 51.4495C19.2986 51.4386 20.2929 51.1561 21.1704 50.6264C21.7571 50.2732 22.2923 49.8087 22.746 49.2436C23.1209 49.7489 23.5691 50.1673 24.0662 50.4933C24.8649 51.0176 25.794 51.3055 26.7502 51.3354C27.701 51.3653 28.679 51.1398 29.5809 50.6372C30.2166 50.2841 30.8115 49.7951 31.3358 49.1649C31.5043 49.4419 31.7026 49.6946 31.9253 49.9201C32.5311 50.5286 33.3162 50.9415 34.1692 51.1235C35.0141 51.3028 35.9296 51.2512 36.7989 50.9361C37.4563 50.6997 38.0866 50.3113 38.6407 49.7625L38.6435 49.7571Z" fill="#00E2F1"/>
<path fill-rule="evenodd" clip-rule="evenodd" d="M6.05811 48.3798C8.09283 47.5104 8.6117 48.1298 9.71735 48.4477C10.7469 48.7438 12.5345 48.7411 13.9579 47.1084C14.1726 47.1111 14.3899 47.1138 14.6072 47.1165C16.9571 49.5234 20.4587 49.1567 22.4663 46.4292C22.6918 46.4157 22.9118 46.4184 23.1346 46.4292C25.0715 49.4202 28.5732 49.5316 31.0996 46.7607C31.2137 46.8096 31.3251 46.853 31.4365 46.8911C34.1965 50.6074 36.4296 47.0024 41.1157 48.0402C40.6756 48.7356 40.1921 49.4039 39.6705 50.0396L38.6463 49.7571L37.9943 49.1024C37.5379 49.556 37.0245 49.8712 36.4921 50.064C35.7885 50.3194 35.0849 50.2841 34.4003 50.1401C33.7211 49.9961 33.0637 49.7462 32.5883 49.2654C32.2732 48.9475 32.0206 48.5618 31.8603 48.1162L31.5451 47.2442L31.0371 48.0184C30.4993 48.8361 29.8446 49.4365 29.1383 49.8277C28.3858 50.246 27.5735 50.4335 26.7857 50.409C26.0006 50.3846 25.2399 50.1455 24.5798 49.7136C24.0175 49.3441 23.5339 48.8361 23.1781 48.195L22.8004 47.5159L22.3848 48.1733C21.9393 48.8769 21.3579 49.4338 20.7032 49.8304C19.9643 50.2759 19.1331 50.4416 18.3018 50.4498C17.4732 50.4579 16.6392 50.3112 15.8922 49.8358C15.2728 49.4447 14.7104 48.8769 14.2541 48.119L13.8683 47.4806L13.4662 48.1081C13.2462 48.4531 12.9718 48.7764 12.6621 49.067C11.2549 50.2759 9.44569 50.697 7.95157 49.2817L7.21266 49.9092L7.17734 49.8657C6.78887 49.3822 6.4167 48.885 6.06082 48.3743L6.05811 48.3798Z" fill="#00AAB1"/>
<path fill-rule="evenodd" clip-rule="evenodd" d="M4.06396 44.9134C5.44128 42.7157 11.3743 42.3842 12.537 46.2907C11.32 46.6547 8.5572 43.6393 4.71323 46.2146C4.47689 45.7827 4.26228 45.348 4.06396 44.9134Z" fill="#00E2F1"/>
<path fill-rule="evenodd" clip-rule="evenodd" d="M19.4154 46.5732L18.9971 46.3749C20.3852 42.3272 26.7122 43.2889 27.4429 46.2228C27.0925 46.3151 26.7719 46.3396 26.4704 46.2662C25.7016 46.0408 25.2153 45.5572 24.1803 45.3181C24.164 45.3154 24.1477 45.31 24.1314 45.3073C22.9225 45.0411 21.8576 45.2013 20.733 45.7148C20.2195 45.9484 19.7876 46.2391 19.4181 46.5732H19.4154Z" fill="#00E2F1"/>
<path fill-rule="evenodd" clip-rule="evenodd" d="M34.2349 46.3341C35.6475 42.6477 40.3553 42.2891 42.7378 45.1361C42.4987 45.5708 42.2624 46.0027 42.0233 46.4374C39.0731 44.6363 36.7477 44.8291 34.8298 46.3178C34.6315 46.3233 34.4332 46.3287 34.2349 46.3314V46.3341Z" fill="#00E2F1"/>
<path fill-rule="evenodd" clip-rule="evenodd" d="M23.2513 23.474C29.945 23.474 35.3727 28.7306 35.3727 35.2178C35.3727 40.2245 32.6561 43.7615 28.3368 45.8805C28.0053 45.3534 27.7038 44.8427 27.0817 44.2913C24.8976 42.3543 21.7191 42.3163 19.4426 44.0875C18.8396 44.5575 18.3234 45.1171 17.9132 45.7636L17.3128 45.4567C16.775 45.1823 16.2751 44.84 15.7997 44.4787C12.9581 42.3299 11.1299 38.9803 11.1299 35.2178C11.1299 28.7333 16.5576 23.474 23.2513 23.474ZM17.139 44.2614C20.4641 40.1376 26.2042 40.0045 29.2088 44.3565C32.3682 42.4413 34.4681 39.0482 34.4681 35.1798C34.4681 29.2006 29.4478 24.3515 23.2513 24.3515C17.0575 24.3515 12.0345 29.2006 12.0345 35.1798C12.0345 38.983 14.0665 42.3272 17.139 44.2587V44.2614Z" fill="#063054"/>
<path fill-rule="evenodd" clip-rule="evenodd" d="M23.3873 3.64838C20.725 6.74529 17.9704 9.76885 15.3163 12.8739C11.1599 17.7339 6.76175 23.254 4.2326 29.1653C2.33099 33.6096 1.87189 37.9535 3.06447 42.1913C3.0699 42.1859 3.07805 42.1805 3.08349 42.1805C5.81094 40.4337 8.16079 40.3522 10.2743 41.3085C9.39956 39.4992 8.91057 37.4781 8.91057 35.3455C8.91057 27.6141 15.3326 21.3442 23.2542 21.3442C31.1757 21.3442 37.5978 27.6114 37.5978 35.3455C37.5978 37.5025 37.0979 39.5427 36.2069 41.3655C38.3584 40.412 40.9093 40.4473 43.6503 42.1968L43.6639 42.2076C43.6748 42.1669 43.6856 42.1289 43.6965 42.0881C45.4107 35.5357 43.3678 29.5022 39.7547 24.0038C37.3207 20.2984 34.691 16.7749 31.8712 13.3548C29.1383 10.0405 26.2641 6.84037 23.39 3.64838H23.3873ZM3.55074 43.6746C4.01256 44.9025 4.61836 46.1222 5.37086 47.3338C5.91961 48.214 6.52541 49.0589 7.17467 49.8684C9.37239 52.6067 12.0102 54.7067 15.2457 56.0731C16.2589 56.5023 17.3048 56.8473 18.3697 57.119C20.9858 57.7873 23.5177 57.8959 26.1881 57.4993C30.2412 56.8962 34.126 55.1413 37.2527 52.4926C40.0047 50.1645 42.0258 47.0948 43.2048 43.7072L43.2021 43.7045C40.9908 42.1343 38.3856 41.7839 35.9814 43.0118C34.4384 43.7996 34.6149 44.0386 33.4604 45.1796C33.4387 45.2013 33.4169 45.2231 33.3952 45.2448C32.9687 45.6631 32.7269 45.8587 32.1917 46.1114C31.5262 46.4265 30.9557 46.3993 30.3526 46.2336C34.1586 43.9408 36.6904 39.8632 36.6904 35.2097C36.6904 28.0406 30.6759 22.2271 23.2569 22.2271C15.8379 22.2271 9.82335 28.0379 9.82335 35.2097C9.82335 39.9148 12.415 44.0359 16.2915 46.3124C15.7863 46.383 15.2647 46.3667 14.7485 46.2309C13.7244 45.9593 13.45 45.5545 12.8143 44.764C12.4204 44.2723 11.9015 43.8131 11.2387 43.3948C11.1816 43.3568 11.1219 43.3214 11.0648 43.2834C8.59545 41.7567 5.95492 42.0202 3.62409 43.6257C3.60236 43.6393 3.57519 43.6583 3.55346 43.6746H3.55074ZM23.3302 0C16.0824 8.7121 6.35969 18.0898 2.02402 28.2199C-0.793086 34.7995 -0.945215 41.7241 3.33341 48.5998C3.90661 49.5234 4.56403 50.4471 5.30294 51.368C7.82122 54.5056 10.7959 56.7957 14.3111 58.2817C15.4114 58.7462 16.5659 59.132 17.7748 59.4417C20.7142 60.1942 23.5448 60.3164 26.5385 59.8709C31.0209 59.2053 35.324 57.2657 38.8012 54.3236C42.3735 51.3001 44.8429 47.1817 46.0165 42.6912C47.9208 35.4053 45.7693 28.7877 41.7596 22.6835C36.033 13.9687 30.4966 7.96776 23.3329 0H23.3302Z" fill="#063054"/>
<path d="M7.94672 49.2871C9.44085 50.7024 11.2501 50.2813 12.6573 49.0725C12.9697 48.7845 13.2414 48.4585 13.4614 48.1135L13.8635 47.486L14.2492 48.1244C14.7056 48.8823 15.2679 49.4474 15.8873 49.8413C16.6344 50.3139 17.4684 50.4634 18.2969 50.4552C19.1282 50.4471 19.9595 50.2813 20.6984 49.8358C21.3531 49.4392 21.9344 48.8823 22.38 48.1787L22.7956 47.5213L23.1732 48.2004C23.5291 48.8416 24.0153 49.3496 24.575 49.719C25.2324 50.151 25.9957 50.3873 26.7808 50.4145C27.5686 50.4389 28.3809 50.2515 29.1334 49.8331C29.8397 49.4392 30.4944 48.8416 31.0323 48.0239L31.5403 47.2496L31.8554 48.1217C32.0157 48.5672 32.2683 48.9529 32.5835 49.2708C33.0589 49.7516 33.719 50.0015 34.3954 50.1455C35.08 50.2895 35.7836 50.3248 36.4872 50.0695C37.0197 49.8766 37.5331 49.5615 37.9895 49.1078L38.6415 49.7625C38.0873 50.3139 37.457 50.6997 36.7996 50.936C35.9303 51.2512 35.0148 51.3001 34.17 51.1235C33.3169 50.9442 32.5319 50.5313 31.9261 49.92C31.7033 49.6946 31.505 49.4419 31.3366 49.1648C30.8123 49.7951 30.2173 50.2841 29.5816 50.6372C28.6797 51.1398 27.7018 51.3653 26.751 51.3354C25.7947 51.3055 24.8656 51.0175 24.067 50.4932C23.5698 50.1673 23.1216 49.7489 22.7467 49.2436C22.293 49.8087 21.7551 50.2732 21.1711 50.6264C20.2936 51.1561 19.2993 51.4413 18.2996 51.4495C17.2972 51.4603 16.2921 51.1914 15.3902 50.6209C14.8197 50.2596 14.29 49.7761 13.8336 49.1675C13.1218 50.2189 11.807 50.9822 10.4732 51.1507C9.28872 51.3001 7.93857 50.8736 7.11816 49.9907L7.94401 49.2898L7.94672 49.2871Z" fill="#FEFEFE"/>
<path fill-rule="evenodd" clip-rule="evenodd" d="M39.1785 43.2726L41.5039 42.7781C42.088 43.0118 42.6557 43.3242 43.199 43.7099C43.0388 44.169 42.8649 44.62 42.6747 45.0655C41.7402 43.987 40.4662 43.3867 39.1758 43.2726H39.1785Z" fill="#BAEEEE"/>
<path fill-rule="evenodd" clip-rule="evenodd" d="M23.3302 25.8103C28.8504 25.8103 33.3273 30.2193 33.3273 35.6579C33.3273 39.127 31.5289 42.1207 28.8449 43.8675C28.9699 44.0223 29.0921 44.1853 29.2089 44.3537C32.3683 42.4386 34.4683 39.0455 34.4683 35.1771C34.4683 29.1979 29.448 24.3488 23.2515 24.3488C17.0576 24.3488 12.0347 29.1979 12.0347 35.1771C12.0347 38.9803 14.0667 42.3245 17.1391 44.256C17.2886 44.0712 17.4434 43.8946 17.601 43.7235C15.0202 41.9441 13.3332 38.9912 13.3332 35.6525C13.3332 30.2139 17.8101 25.8049 23.3302 25.8049V25.8103ZM27.4377 44.6336C27.1851 44.7449 26.927 44.8482 26.6662 44.9405C27.0465 45.3046 27.3209 45.7365 27.4432 46.22C27.7882 46.1277 28.1631 45.9701 28.5841 45.7691C28.6276 45.7446 28.6683 45.7175 28.7118 45.6903H28.7145C28.5923 45.7555 28.4673 45.818 28.3424 45.8778C28.0816 45.4621 27.8371 45.0573 27.4404 44.6336H27.4377Z" fill="#BAEEEE"/>
<path fill-rule="evenodd" clip-rule="evenodd" d="M34.0068 26.082C38.204 30.415 40.1925 34.623 38.9945 40.7434C38.0084 40.757 37.0739 40.9825 36.2046 41.3682C37.0956 39.5454 37.5955 37.5025 37.5955 35.3483C37.5955 31.7977 36.2399 28.5568 34.0068 26.0874V26.0847V26.082Z" fill="#0090D2"/>
<path fill-rule="evenodd" clip-rule="evenodd" d="M17.1717 46.0951C13.2326 43.9762 10.5649 39.9094 10.5649 35.2369C10.5649 29.7602 14.2269 25.1149 19.3096 23.4659C21.0537 22.9009 22.4337 22.8791 24.2403 22.8329L25.096 22.3548C31.643 23.2241 36.6849 28.6492 36.6849 35.2124C36.6849 39.8632 34.1531 43.9436 30.3471 46.2364C30.4015 46.2499 30.4531 46.2662 30.5074 46.2771C30.2167 46.2065 29.9206 46.1005 29.6082 45.9783C30.0673 45.7338 30.4993 45.4513 30.9176 45.1552C34.0634 42.9411 36.1117 39.4884 36.0846 35.6091C36.033 28.4998 30.8606 23.1671 24.2647 23.4034C23.9197 23.417 23.5665 23.4387 23.2052 23.4713C23.1373 23.4713 23.0721 23.4713 23.0042 23.4741C22.9607 23.4741 22.9146 23.4768 22.8711 23.4768C22.8059 23.4795 22.7407 23.4822 22.6755 23.4849C22.6402 23.4876 22.6021 23.4876 22.5668 23.4904C22.5044 23.4931 22.4419 23.4985 22.3821 23.5012C22.3414 23.5039 22.3006 23.5067 22.2599 23.5094C22.2001 23.5148 22.143 23.5202 22.0833 23.5257C22.0371 23.5311 21.9882 23.5338 21.942 23.5393C21.8795 23.5447 21.8171 23.5528 21.7546 23.561C21.7193 23.5664 21.6839 23.5691 21.6486 23.5746C21.5889 23.5827 21.5291 23.5909 21.4693 23.599C21.4259 23.6045 21.3824 23.6126 21.3389 23.618C21.2873 23.6262 21.233 23.6343 21.1814 23.6425C21.1325 23.6506 21.0809 23.6588 21.032 23.6697C20.9776 23.6805 20.9233 23.6887 20.869 23.6995C20.8282 23.7077 20.7875 23.7158 20.7467 23.724C20.6924 23.7349 20.6381 23.7457 20.5837 23.7593C20.5348 23.7702 20.4832 23.781 20.4343 23.7919C20.3908 23.8028 20.3501 23.8109 20.3066 23.8218C20.2523 23.8354 20.198 23.849 20.1436 23.8625C20.0947 23.8761 20.0458 23.887 19.9969 23.9006C19.9535 23.9114 19.9127 23.9223 19.8693 23.9359C19.8204 23.9495 19.7687 23.963 19.7198 23.9793C19.6655 23.9956 19.6085 24.0119 19.5541 24.0282C19.5188 24.0391 19.4835 24.05 19.4509 24.0608C19.3939 24.0799 19.3395 24.0962 19.2825 24.1152C19.2444 24.1288 19.2064 24.1396 19.1684 24.1532C19.1113 24.1722 19.0543 24.194 18.9972 24.213C18.9619 24.2266 18.9239 24.2401 18.8886 24.2537C18.8261 24.2755 18.7663 24.2999 18.7066 24.3244L18.6332 24.3542C18.5707 24.3787 18.5082 24.4059 18.4458 24.4303C18.4268 24.4385 18.4077 24.4466 18.3887 24.4548C18.2991 24.4928 18.2121 24.5308 18.1252 24.5716L18.0872 24.5879C18.0193 24.6177 17.9541 24.6503 17.8861 24.6829L17.8454 24.702C17.7775 24.7346 17.7123 24.7672 17.6471 24.7998L17.6335 24.8052C17.5303 24.8568 17.427 24.9111 17.3265 24.9655L17.3102 24.9736C17.2423 25.0117 17.1744 25.0497 17.1065 25.0877L17.0875 25.0986C13.6021 27.0953 11.2387 30.7355 11.1327 34.9163C11.13 35.0141 11.13 35.1119 11.13 35.2097C11.13 38.9722 12.9583 42.3218 15.7998 44.4706C16.2779 44.8319 16.7751 45.1742 17.3129 45.4486L17.8997 45.7474L17.8536 45.7854C17.6362 45.9022 17.408 46.0055 17.1717 46.0897V46.0951Z" fill="#00E9E9"/>
<path fill-rule="evenodd" clip-rule="evenodd" d="M23.2376 33.194C23.6533 33.194 24.0472 33.3027 24.3868 33.4901C25.7043 32.4171 26.992 31.2951 28.3122 30.2275C29.4179 29.4451 30.4638 30.5969 29.5021 31.5369L25.6147 35.6226C25.5875 36.913 24.5335 37.9508 23.2376 37.9508C21.9228 37.9508 20.8579 36.8858 20.8579 35.571C20.8579 34.2562 21.9228 33.1913 23.2376 33.1913V33.194ZM21.8875 36.4267C21.6267 36.0111 21.5534 35.5493 21.6919 35.1228C21.8304 34.6936 22.4933 34.0633 22.9089 34.1176C23.1724 34.153 23.3843 34.5767 23.11 34.7751C22.7731 35.0168 22.3575 34.8077 22.2814 35.5819C22.2651 35.7422 22.3086 35.9215 22.3711 36.1171C22.4281 36.2963 22.4471 36.4485 22.2624 36.5544C22.1238 36.6332 21.969 36.549 21.8902 36.4267H21.8875Z" fill="#063054"/>
<path fill-rule="evenodd" clip-rule="evenodd" d="M29.6759 31.3358C30.3415 31.4282 30.6947 32.216 29.9992 32.8925L26.6116 36.4539C26.5845 37.7443 25.5304 38.782 24.2346 38.782C23.4169 38.782 22.697 38.3718 22.2705 37.7443C22.5666 37.8774 22.8953 37.9507 23.2403 37.9507C24.5361 37.9507 25.5902 36.913 25.6173 35.6226L29.5048 31.5369C29.5727 31.4717 29.6297 31.4038 29.6786 31.3358H29.6759Z" fill="#BAEEEE"/>
<path d="M10.459 21.7137C10.9752 20.5917 11.8363 19.6708 12.6377 18.7254C13.2761 17.9729 14.0313 17.321 14.6969 16.5658C16.172 14.8978 18.0709 16.6826 16.623 18.068C15.8623 18.7961 15.0636 19.4426 14.3981 20.2304C13.7189 21.0318 13.1512 21.7517 12.6839 22.6808C11.9178 24.2048 9.8994 22.9334 10.459 21.7137Z" fill="#FEFEFE" fill-opacity="0.48"/>
<path fill-rule="evenodd" clip-rule="evenodd" d="M16.0743 38.8472L14.4036 39.9094C14.1129 40.0941 14.0477 40.4609 14.1998 40.7678C14.3547 41.0748 14.7703 41.1563 15.0583 40.9716L16.729 39.9094C17.0197 39.7247 17.0848 39.3579 16.9327 39.051C16.7779 38.744 16.3622 38.6625 16.0743 38.8472ZM13.0833 34.6881H15.2973C15.6396 34.6881 15.9221 34.9679 15.9221 35.3129C15.9221 35.6552 15.6423 35.9378 15.2973 35.9378H13.0833C12.741 35.9378 12.4585 35.6579 12.4585 35.3129C12.4585 34.9706 12.7383 34.6881 13.0833 34.6881ZM16.0743 31.8656L14.4009 30.7952C14.121 30.616 14.0341 30.2411 14.2134 29.9613C14.39 29.6787 14.7676 29.5945 15.0474 29.7738L16.7208 30.8441C17.0006 31.0234 17.0876 31.3983 16.9083 31.6781C16.7317 31.9607 16.3541 32.0449 16.0743 31.8656ZM18.8968 28.7632L17.946 27.1116C17.7803 26.8236 17.8808 26.4514 18.1688 26.2857C18.4567 26.12 18.8289 26.2205 18.9946 26.5085L19.9454 28.1602C20.1111 28.4481 20.0106 28.8203 19.7227 28.986C19.4347 29.1517 19.0625 29.0512 18.8968 28.7632ZM22.6674 27.5082V25.6011C22.6674 25.2697 22.9391 24.9953 23.2732 24.9953C23.6074 24.9953 23.879 25.267 23.879 25.6011V27.5082C23.879 27.8396 23.6074 28.114 23.2732 28.114C22.9418 28.114 22.6674 27.8423 22.6674 27.5082ZM26.6011 28.2118L27.5872 26.5085C27.7583 26.2124 28.1441 26.1091 28.4402 26.2803C28.7363 26.4514 28.8395 26.8372 28.6684 27.1333L27.6823 28.8366C27.5111 29.1327 27.1254 29.2359 26.8293 29.0648C26.5331 28.8936 26.4299 28.5079 26.6011 28.2118ZM29.8637 30.8686L31.5099 29.7928C31.7979 29.6054 32.1864 29.6869 32.3738 29.9748C32.5613 30.2628 32.4798 30.6513 32.1918 30.8387L30.5456 31.9145C30.2576 32.1019 29.8691 32.0204 29.6817 31.7325C29.4942 31.4445 29.5757 31.056 29.8637 30.8686ZM31.3062 34.6908H33.5202C33.8625 34.6908 34.145 34.9706 34.145 35.3157C34.145 35.6579 33.8652 35.9405 33.5202 35.9405H31.3062C30.9639 35.9405 30.6814 35.6607 30.6814 35.3157C30.6814 34.9734 30.9612 34.6908 31.3062 34.6908ZM30.5048 38.8499L32.1755 39.9121C32.4662 40.0969 32.5314 40.4636 32.3792 40.7706C32.2244 41.0775 31.8088 41.159 31.5208 40.9743L29.8501 39.9121C29.5594 39.7274 29.4942 39.3607 29.6464 39.0537C29.8012 38.7467 30.2168 38.6652 30.5048 38.8499Z" fill="#063054"/>
<path d="M59.096 24.194V26.03H64.316V29H56V16.4H64.298V19.37H59.096V21.206H64.19V24.194H59.096ZM76.58 26.12H77.498V30.8H74.6V29H69.164V30.8H66.14V26.462L67.382 26.174C67.796 25.598 67.94 24.5 68.03 23.276L68.498 16.4H76.58V26.12ZM70.55 26.12H73.484V19.316H71.306C71.054 23.996 71.036 25.166 70.55 26.12ZM88.6088 29H85.5488V22.61L80.8868 29H78.8348V16.4H81.8768V22.772L86.4668 16.4H88.6088V29ZM93.0917 16.4V21.152H96.4037V16.4H99.4817V29H96.4037V24.122H93.0917V29H90.0137V16.4H93.0917ZM109.66 29L108.958 27.146H104.656L103.954 29H100.66L105.7 16.256H107.896L113.134 29H109.66ZM106.816 21.332L105.88 23.996L105.772 24.284H107.86L107.788 24.068L106.816 21.332ZM120.892 24.734H120.388L117.76 29H114.484V28.424L117.184 24.428C113.314 22.574 114.052 16.4 119.056 16.4H123.952V29H120.892V24.734ZM120.892 21.944V19.352H119.128C117.256 19.352 117.274 21.944 119.128 21.944H120.892ZM129.74 16.4H134.564C140.468 16.4 140.45 25.256 134.564 25.256H132.818V29H129.74V16.4ZM132.818 22.358H134.564C136.472 22.358 136.472 19.388 134.564 19.388H132.818V22.358ZM143.348 24.194V26.03H148.568V29H140.252V16.4H148.55V19.37H143.348V21.206H148.442V24.194H143.348ZM153.178 19.334V29H150.1V16.4H158.38V19.334H153.178ZM169.486 29H166.426V22.61L161.764 29H159.712V16.4H162.754V22.772L167.344 16.4H169.486V29ZM170.801 22.718C170.801 19.01 173.717 16.202 177.317 16.202C180.917 16.202 183.851 19.01 183.851 22.718C183.851 26.372 180.917 29.18 177.317 29.18C173.717 29.18 170.801 26.426 170.801 22.718ZM173.861 22.718C173.861 27.47 180.755 27.434 180.755 22.718C180.755 17.966 173.861 17.948 173.861 22.718ZM188.224 16.4V21.152H191.536V16.4H194.614V29H191.536V24.122H188.224V29H185.146V16.4H188.224ZM204.793 29L204.091 27.146H199.789L199.087 29H195.792L200.833 16.256H203.029L208.267 29H204.793ZM201.949 21.332L201.013 23.996L200.905 24.284H202.993L202.921 24.068L201.949 21.332ZM218.293 29L216.421 24.068L215.449 21.332L214.513 23.996L212.587 29H209.292L214.333 16.256H216.529L221.767 29H218.293ZM227.731 29H222.889V16.4H225.967V20.144H227.731C230.629 20.144 232.105 22.34 232.105 24.572C232.105 26.786 230.629 29 227.731 29ZM227.731 23.096H225.967V26.048H227.731C228.613 26.048 229.045 25.292 229.045 24.554C229.045 23.834 228.613 23.096 227.731 23.096ZM236.389 16.4V21.152H239.701V16.4H242.779V29H239.701V24.122H236.389V29H233.311V16.4H236.389ZM252.957 29L252.255 27.146H247.953L247.251 29H243.957L248.997 16.256H251.193L256.431 29H252.957ZM250.113 21.332L249.177 23.996L249.069 24.284H251.157L251.085 24.068L250.113 21.332ZM264.189 24.734H263.685L261.057 29H257.781V28.424L260.481 24.428C256.611 22.574 257.349 16.4 262.353 16.4H267.249V29H264.189V24.734ZM264.189 21.944V19.352H262.425C260.553 19.352 260.571 21.944 262.425 21.944H264.189Z" fill="#063054"/>
<path d="M57.43 42.577V48H56.319V40.3H57.221L59.762 44.04L62.303 40.3H63.183V48H62.083V42.577L60.07 45.569H59.443L57.43 42.577ZM65.3582 44.7V46.889H68.9333V48H64.2363V40.3H68.9223V41.411H65.3582V43.578H68.8453V44.7H65.3582ZM73.227 48H72.116V41.356H69.784V40.3H75.548V41.356H73.227V48ZM76.4163 40.3H79.2323C80.8933 40.3 81.7293 41.587 81.7293 42.874C81.7293 44.161 80.8933 45.437 79.2323 45.437H77.5383V48H76.4163V40.3ZM77.5383 44.337H79.2323C80.1673 44.337 80.6293 43.611 80.6293 42.885C80.6293 42.148 80.1673 41.422 79.2323 41.422H77.5383V44.337ZM89.142 44.15C89.142 43.358 88.823 42.665 88.328 42.159C87.811 41.642 87.096 41.323 86.337 41.323C85.578 41.323 84.874 41.642 84.368 42.159C83.862 42.665 83.543 43.369 83.543 44.15C83.543 44.931 83.862 45.635 84.368 46.141C84.874 46.658 85.578 46.977 86.337 46.977C87.096 46.977 87.811 46.658 88.328 46.141C88.823 45.635 89.142 44.942 89.142 44.15ZM82.421 44.15C82.421 43.061 82.872 42.082 83.565 41.367C84.269 40.652 85.259 40.201 86.337 40.201C87.426 40.201 88.405 40.652 89.12 41.367C89.813 42.082 90.264 43.061 90.264 44.15C90.264 45.239 89.813 46.218 89.12 46.933C88.405 47.659 87.426 48.099 86.337 48.099C85.259 48.099 84.269 47.659 83.565 46.933C82.872 46.218 82.421 45.239 82.421 44.15ZM93.9571 42.126L91.6581 48H90.4481L93.5391 40.201H94.3531L97.4441 48H96.2341L93.9571 42.126ZM104.364 44.15C104.364 43.358 104.045 42.665 103.55 42.159C103.033 41.642 102.318 41.323 101.559 41.323C100.8 41.323 100.096 41.642 99.5896 42.159C99.0836 42.665 98.7646 43.369 98.7646 44.15C98.7646 44.931 99.0836 45.635 99.5896 46.141C100.096 46.658 100.8 46.977 101.559 46.977C102.318 46.977 103.033 46.658 103.55 46.141C104.045 45.635 104.364 44.942 104.364 44.15ZM97.6426 44.15C97.6426 43.061 98.0936 42.082 98.7866 41.367C99.4906 40.652 100.481 40.201 101.559 40.201C102.648 40.201 103.627 40.652 104.342 41.367C105.035 42.082 105.486 43.061 105.486 44.15C105.486 45.239 105.035 46.218 104.342 46.933C103.627 47.659 102.648 48.099 101.559 48.099C100.481 48.099 99.4906 47.659 98.7866 46.933C98.0936 46.218 97.6426 45.239 97.6426 44.15ZM107.564 41.378V48H106.442V40.3H111.128V41.378H107.564ZM117.793 48H116.682V42.621L112.964 48H112.084V40.3H113.184V45.723L116.935 40.3H117.793V48ZM123.954 40.3V48H122.799V45.228C122.447 45.327 122.095 45.371 121.732 45.371C120.225 45.371 118.806 44.645 118.806 42.918V40.3H119.972V42.918C119.972 43.886 120.852 44.359 121.765 44.359C122.128 44.359 122.48 44.293 122.799 44.205V40.3H123.954ZM126.105 44.7V46.889H129.68V48H124.983V40.3H129.669V41.411H126.105V43.578H129.592V44.7H126.105ZM130.718 44.172C130.718 41.928 132.434 40.223 134.48 40.223C136.24 40.223 137.626 41.323 138.066 43.061H136.966C136.559 41.906 135.613 41.323 134.48 41.323C132.764 41.323 131.796 42.786 131.796 44.172C131.796 45.041 132.104 45.624 132.588 46.13C133.072 46.636 133.743 46.955 134.48 46.955C135.646 46.955 136.636 46.284 137.032 45.118H138.121C137.681 46.867 136.273 48.055 134.48 48.055C133.435 48.055 132.489 47.615 131.818 46.911C131.158 46.207 130.718 45.338 130.718 44.172ZM138.882 40.3H140.004V48H138.882V40.3ZM140.213 44.436V43.875L142.93 40.3H144.294L141.357 44.128L144.602 48H143.15L140.213 44.436ZM148.237 41.972L147.082 45.008H149.392L148.237 41.972ZM150.536 48L149.799 46.053H146.675L145.927 48H144.728L147.819 40.201H148.633L151.724 48H150.536ZM156.289 44.095V44.623L153.484 48H152.043L154.474 45.107C153.154 44.876 152.483 43.842 152.483 42.753C152.483 41.532 153.319 40.3 154.991 40.3H157.796V48H156.696V41.422H154.991C154.056 41.422 153.594 42.093 153.594 42.753C153.594 43.424 154.056 44.095 154.991 44.095H156.289ZM161.462 44.172C161.462 41.928 163.178 40.223 165.224 40.223C166.984 40.223 168.37 41.323 168.81 43.061H167.71C167.303 41.906 166.357 41.323 165.224 41.323C163.508 41.323 162.54 42.786 162.54 44.172C162.54 45.041 162.848 45.624 163.332 46.13C163.816 46.636 164.487 46.955 165.224 46.955C166.39 46.955 167.38 46.284 167.776 45.118H168.865C168.425 46.867 167.017 48.055 165.224 48.055C164.179 48.055 163.233 47.615 162.562 46.911C161.902 46.207 161.462 45.338 161.462 44.172ZM172.773 42.126L170.474 48H169.264L172.355 40.201H173.169L176.26 48H175.05L172.773 42.126ZM178.65 48.011H177.44L178.529 45.536L175.977 40.3H177.231L178.595 43.061L179.167 44.293L179.662 43.072L180.85 40.3H182.115L178.65 48.011ZM186.628 40.3H187.75V48H186.628V40.3ZM187.959 44.436V43.875L190.445 40.3H191.754L189.07 44.128L192.04 48H190.654L187.959 44.436ZM186.408 43.875V44.436L183.713 48H182.327L185.297 44.128L182.613 40.3H183.922L186.408 43.875ZM197.709 40.3V41.378H193.705V43.369H196.081C197.467 43.369 198.314 44.447 198.314 45.679C198.314 46.834 197.555 48 196.081 48H192.605V40.3H197.709ZM193.705 44.436V46.922H196.081C196.829 46.922 197.203 46.295 197.203 45.69C197.203 45.085 196.829 44.436 196.081 44.436H193.705ZM202.228 41.972L201.073 45.008H203.383L202.228 41.972ZM204.527 48L203.79 46.053H200.666L199.918 48H198.719L201.81 40.201H202.624L205.715 48H204.527Z" fill="#00B7FF"/>
</svg>
