<svg width="38" height="31" viewBox="0 0 38 31" fill="none" xmlns="http://www.w3.org/2000/svg">
<path d="M4.2165 30.8332C3.1715 30.8332 2.27724 30.4664 1.5337 29.7326C0.790171 28.9989 0.417771 28.1157 0.416504 27.0832V4.58325C0.416504 3.552 0.788904 2.6695 1.5337 1.93575C2.2785 1.202 3.17277 0.834502 4.2165 0.833252H34.6165C35.6615 0.833252 36.5564 1.20075 37.3012 1.93575C38.046 2.67075 38.4178 3.55325 38.4165 4.58325V27.0832C38.4165 28.1145 38.0447 28.9976 37.3012 29.7326C36.5577 30.4676 35.6628 30.8345 34.6165 30.8332H4.2165ZM19.4165 17.7082L4.2165 8.33325V27.0832H34.6165V8.33325L19.4165 17.7082ZM19.4165 13.9583L34.6165 4.58325H4.2165L19.4165 13.9583ZM4.2165 8.33325V4.58325V27.0832V8.33325Z" fill="#00B7FF"/>
</svg>
