<svg width="31" height="31" viewBox="0 0 31 31" fill="none" xmlns="http://www.w3.org/2000/svg">
<path d="M15.4995 3.87848C15.7563 3.87848 16.0027 3.98051 16.1843 4.16214C16.3659 4.34376 16.468 4.59009 16.468 4.84694V7.75233C16.468 8.00919 16.3659 8.25552 16.1843 8.43714C16.0027 8.61876 15.7563 8.7208 15.4995 8.7208C15.2426 8.7208 14.9963 8.61876 14.8147 8.43714C14.6331 8.25552 14.531 8.00919 14.531 7.75233V4.84694C14.531 4.59009 14.6331 4.34376 14.8147 4.16214C14.9963 3.98051 15.2426 3.87848 15.4995 3.87848ZM7.23269 7.23324C7.4143 7.05168 7.66059 6.94968 7.91739 6.94968C8.17419 6.94968 8.42048 7.05168 8.6021 7.23324L10.3744 9.00359C10.5562 9.18544 10.6584 9.43209 10.6584 9.68926C10.6584 9.94644 10.5562 10.1931 10.3744 10.3749C10.1925 10.5568 9.94589 10.6589 9.68871 10.6589C9.43154 10.6589 9.18489 10.5568 9.00304 10.3749L7.23269 8.60265C7.05113 8.42103 6.94914 8.17474 6.94914 7.91794C6.94914 7.66114 7.05113 7.41485 7.23269 7.23324ZM3.87793 15.5C3.87793 15.2432 3.97996 14.9969 4.16159 14.8152C4.34321 14.6336 4.58954 14.5316 4.84639 14.5316H7.91836C8.17521 14.5316 8.42155 14.6336 8.60317 14.8152C8.78479 14.9969 8.88683 15.2432 8.88683 15.5C8.88683 15.7569 8.78479 16.0032 8.60317 16.1849C8.42155 16.3665 8.17521 16.4685 7.91836 16.4685H4.84639C4.58954 16.4685 4.34321 16.3665 4.16159 16.1849C3.97996 16.0032 3.87793 15.7569 3.87793 15.5ZM22.2787 15.5C22.2787 15.2432 22.3808 14.9969 22.5624 14.8152C22.744 14.6336 22.9904 14.5316 23.2472 14.5316H26.1526C26.4095 14.5316 26.6558 14.6336 26.8374 14.8152C27.019 14.9969 27.1211 15.2432 27.1211 15.5C27.1211 15.7569 27.019 16.0032 26.8374 16.1849C26.6558 16.3665 26.4095 16.4685 26.1526 16.4685H23.2472C22.9904 16.4685 22.744 16.3665 22.5624 16.1849C22.3808 16.0032 22.2787 15.7569 22.2787 15.5ZM23.7392 7.27585C23.6048 7.14278 23.4254 7.06496 23.2363 7.05779C23.0473 7.05062 22.8625 7.11461 22.7184 7.23711L14.6221 14.1636C14.4356 14.3232 14.2845 14.5201 14.1785 14.7415C14.0725 14.963 14.014 15.2041 14.0066 15.4495C13.9992 15.6949 14.0431 15.9391 14.1356 16.1665C14.2281 16.3939 14.3671 16.5995 14.5436 16.7701C14.7202 16.9407 14.9304 17.0725 15.1608 17.1571C15.3913 17.2417 15.6369 17.2773 15.8819 17.2615C16.1269 17.2456 16.3658 17.1788 16.5835 17.0653C16.8012 16.9518 16.9927 16.794 17.1459 16.6022L23.7973 8.27918C23.9126 8.13415 23.9706 7.95181 23.9602 7.76682C23.9499 7.58183 23.8719 7.4071 23.7411 7.27585H23.7392Z" fill="#00B7FF"/>
<path fill-rule="evenodd" clip-rule="evenodd" d="M12.9118 30.7804C10.905 30.4406 8.98479 29.7088 7.26081 28.6269C5.53683 27.545 4.04283 26.1341 2.86412 24.4748C0.483596 21.1237 -0.468202 16.9642 0.218108 12.9113C0.904418 8.85843 3.17262 5.24418 6.52373 2.86366C9.87484 0.483138 14.0344 -0.46866 18.0872 0.21765C22.1404 0.90396 25.7549 3.17226 28.1356 6.52355C30.5163 9.87485 31.4682 14.0346 30.7819 18.0877C30.0956 22.1409 27.8272 25.7554 24.476 28.1361C21.1247 30.5168 16.9649 31.4687 12.9118 30.7824V30.7804ZM3.876 22.4846C7.40852 20.4411 11.4185 19.368 15.4995 19.3739C19.7336 19.3739 23.7043 20.507 27.123 22.4846C28.3585 20.4272 29.0259 18.0789 29.0569 15.6792C29.0879 13.2796 28.4814 10.9148 27.2994 8.82622C26.1175 6.73767 24.4024 5.00025 22.3292 3.7914C20.2561 2.58256 17.8993 1.94561 15.4995 1.94561C13.0997 1.94561 10.7429 2.58256 8.66976 3.7914C6.59664 5.00025 4.88152 6.73767 3.69955 8.82622C2.51759 10.9148 1.91114 13.2796 1.94214 15.6792C1.97313 18.0789 2.64047 20.4272 3.876 22.4846Z" fill="#00B7FF"/>
</svg>
