<svg width="17" height="17" viewBox="0 0 17 17" fill="none" xmlns="http://www.w3.org/2000/svg">
<path d="M11.1261 9.00115L7.58448 12.5428C7.51867 12.6086 7.44054 12.6608 7.35455 12.6964C7.26856 12.7321 7.1764 12.7504 7.08333 12.7504C6.99026 12.7504 6.8981 12.7321 6.81211 12.6964C6.72613 12.6608 6.648 12.6086 6.58219 12.5428C6.51638 12.477 6.46417 12.3989 6.42855 12.3129C6.39294 12.2269 6.37461 12.1347 6.37461 12.0417C6.37461 11.9486 6.39294 11.8564 6.42855 11.7704C6.46417 11.6845 6.51638 11.6063 6.58219 11.5405L8.91526 9.20833H0.708333C0.520472 9.20833 0.340304 9.13371 0.207466 9.00087C0.0746277 8.86803 0 8.68786 0 8.5C0 8.31214 0.0746277 8.13197 0.207466 7.99913C0.340304 7.86629 0.520472 7.79167 0.708333 7.79167H8.91526L6.58219 5.45948C6.44928 5.32657 6.37461 5.1463 6.37461 4.95833C6.37461 4.77037 6.44928 4.5901 6.58219 4.45719C6.7151 4.32428 6.89537 4.24961 7.08333 4.24961C7.2713 4.24961 7.45157 4.32428 7.58448 4.45719L11.1261 7.99885C11.192 8.06464 11.2443 8.14276 11.2799 8.22875C11.3155 8.31474 11.3339 8.40691 11.3339 8.5C11.3339 8.59309 11.3155 8.68526 11.2799 8.77125C11.2443 8.85724 11.192 8.93536 11.1261 9.00115ZM15.5833 0H10.625C10.4371 0 10.257 0.0746279 10.1241 0.207466C9.99129 0.340304 9.91667 0.520472 9.91667 0.708333C9.91667 0.896195 9.99129 1.07636 10.1241 1.2092C10.257 1.34204 10.4371 1.41667 10.625 1.41667H15.5833V15.5833H10.625C10.4371 15.5833 10.257 15.658 10.1241 15.7908C9.99129 15.9236 9.91667 16.1038 9.91667 16.2917C9.91667 16.4795 9.99129 16.6597 10.1241 16.7925C10.257 16.9254 10.4371 17 10.625 17H15.5833C15.9591 17 16.3194 16.8507 16.5851 16.5851C16.8507 16.3194 17 15.9591 17 15.5833V1.41667C17 1.04094 16.8507 0.680609 16.5851 0.414932C16.3194 0.149255 15.9591 0 15.5833 0Z" fill="#063054"/>
</svg>
